<svg xmlns="http://www.w3.org/2000/svg" viewBox="0 0 64 64" width="64" height="64">
  <!-- Azure cloud shape -->
  <path d="M32 16 C26 16 22 20 22 26 C19 27 17 30 17 34 C17 39 21 43 26 43 L38 43 C42 43 45 40 45 34 C45 30 43 27 40 26 C40 20 36 16 30 16 Z" fill="#0078d4"/>
  
  <!-- Wizard hat with star -->
  <path d="M32 10 L24 22 L28 22 L30 20 L34 20 L36 22 L40 22 Z" fill="#ffffff"/>
  <circle cx="32" cy="20" r="1.5" fill="#0078d4"/>
  <path d="M32 8 L32.5 11 L35.5 11 L33 12.5 L33.5 15.5 L32 14 L30.5 15.5 L31 12.5 L28.5 11 L31.5 11 Z" fill="#ffb900"/>
</svg>

















